<svg width="196.000000" height="48.000000" viewBox="0 0 196 48" fill="none" xmlns="http://www.w3.org/2000/svg" xmlns:xlink="http://www.w3.org/1999/xlink">
	<desc>
			Created with Pixso.
	</desc>
	<defs>
		<clipPath id="clip10_1">
			<rect id="svg" width="196.000000" height="48.000000" fill="white" fill-opacity="0"/>
		</clipPath>
	</defs>
	<g clip-path="url(#clip10_1)">
		<mask id="mask10_4" mask-type="alpha" maskUnits="userSpaceOnUse" x="0.000000" y="0.000000" width="196.000000" height="48.000000">
			<rect id="Vector" width="196.000000" height="48.000000" fill="#000000" fill-opacity="1.000000"/>
		</mask>
		<g mask="url(#mask10_4)">
			<path id="Vector" d="M40 24L0 48L0 0L40 24L0 48L0 0L40 24Z" fill="#D64A28" fill-opacity="1.000000" fill-rule="nonzero"/>
			<path id="Vector" d="M92 24L52 48L52 0L92 24L52 48L52 0L92 24Z" fill="#D64A28" fill-opacity="1.000000" fill-rule="nonzero"/>
			<path id="Vector" d="M144 24L104 48L104 0L144 24L104 48L104 0L144 24Z" fill="#D64A28" fill-opacity="1.000000" fill-rule="nonzero"/>
			<path id="Vector" d="M196 24L156 48L156 0L196 24L156 48L156 0L196 24Z" fill="#D64A28" fill-opacity="1.000000" fill-rule="nonzero"/>
		</g>
	</g>
</svg>
