<svg width="682.000000" height="682.000000" viewBox="0 0 682 682" fill="none" xmlns="http://www.w3.org/2000/svg" xmlns:xlink="http://www.w3.org/1999/xlink">
	<desc>
			Created with Pixso.
	</desc>
	<defs>
		<clipPath id="clip8_2">
			<rect id="svg" width="682.000000" height="682.000000" fill="white" fill-opacity="0"/>
		</clipPath>
	</defs>
	<g clip-path="url(#clip8_2)">
		<mask id="mask8_5" mask-type="alpha" maskUnits="userSpaceOnUse" x="0.000000" y="0.000000" width="682.000000" height="682.000000">
			<rect id="Vector" width="682.000000" height="682.000000" fill="#000000" fill-opacity="1.000000"/>
		</mask>
		<g mask="url(#mask8_5)">
			<mask id="mask8_9" mask-type="alpha" maskUnits="userSpaceOnUse" x="21.582275" y="21.582275" width="638.835449" height="638.835449">
				<rect id="Vector" x="21.582275" y="21.582275" width="638.835449" height="638.835449" fill="#000000" fill-opacity="1.000000"/>
			</mask>
			<g mask="url(#mask8_9)">
				<path id="path" d="M341 489.58C259.06 489.58 192.4 422.93 192.4 341C192.4 259.08 259.06 192.4 341 192.4C422.94 192.4 489.58 259.06 489.58 341C489.58 422.94 422.92 489.58 341 489.58ZM341 488.86C422.52 488.86 488.84 422.52 488.84 341C488.84 259.48 422.52 193.14 341 193.14C259.47 193.14 193.14 259.46 193.14 341C193.14 422.54 259.46 488.86 341 488.86Z" fill="#1F4EC6" fill-opacity="1.000000" fill-rule="nonzero"/>
				<path id="path" d="M460.35 460.37C432.73 487.98 396.4 505.16 357.53 508.99C318.66 512.81 279.67 503.04 247.2 481.35C214.73 459.64 190.79 427.36 179.45 389.98C168.12 352.61 170.09 312.46 185.04 276.38C199.99 240.3 226.98 210.52 261.43 192.12C295.87 173.71 335.63 167.81 373.94 175.43C412.24 183.05 446.71 203.72 471.49 233.91C496.26 264.1 509.8 301.95 509.8 341C509.86 363.18 505.52 385.15 497.03 405.64C488.54 426.13 476.07 444.73 460.35 460.37ZM340.97 509.06C433.64 509.06 509.03 433.67 509.03 341C509.03 248.33 433.63 172.94 340.96 172.94C248.3 172.94 172.89 248.33 172.89 341C172.89 433.68 248.3 509.06 340.97 509.06Z" fill="#1F4EC6" fill-opacity="1.000000" fill-rule="nonzero"/>
				<path id="path" d="M474.66 474.64C443.74 505.57 403.05 524.82 359.53 529.11C316.01 533.39 272.35 522.46 235.98 498.16C199.62 473.87 172.8 437.72 160.11 395.87C147.42 354.02 149.63 309.06 166.36 268.66C183.09 228.26 213.32 194.91 251.89 174.29C290.46 153.67 334.98 147.07 377.87 155.6C420.76 164.13 459.37 187.28 487.11 221.08C514.86 254.89 530.02 297.26 530.01 341C530.08 365.83 525.23 390.42 515.73 413.37C506.22 436.31 492.27 457.14 474.66 474.64ZM341.01 529.21C444.8 529.21 529.24 444.76 529.24 340.97C529.24 237.17 444.8 152.72 341.01 152.72C237.21 152.72 152.74 237.21 152.74 340.97C152.74 444.74 237.19 529.21 341.01 529.21Z" fill="#1F4EC6" fill-opacity="1.000000" fill-rule="nonzero"/>
				<path id="path" d="M488.94 488.95C454.71 523.18 409.67 544.48 361.5 549.23C313.32 553.97 264.99 541.86 224.74 514.96C184.49 488.07 154.82 448.05 140.76 401.72C126.71 355.4 129.16 305.64 147.68 260.91C166.21 216.19 199.67 179.27 242.36 156.46C285.06 133.64 334.34 126.33 381.82 135.78C429.3 145.22 472.03 170.84 502.74 208.26C533.45 245.68 550.24 292.59 550.24 341C550.31 368.49 544.93 395.72 534.4 421.11C523.88 446.51 508.43 469.57 488.94 488.95ZM340.98 549.46C455.92 549.46 549.45 455.94 549.45 341C549.45 226.06 455.92 132.54 340.98 132.54C226.04 132.54 132.51 226.07 132.51 341C132.51 455.93 226.03 549.46 340.98 549.46Z" fill="#1F4EC6" fill-opacity="1.000000" fill-rule="nonzero"/>
				<path id="path" d="M503.25 503.24C481.94 524.55 456.64 541.45 428.81 552.98C400.97 564.52 371.13 570.45 341 570.45C310.86 570.45 281.02 564.52 253.18 552.98C225.34 541.45 200.05 524.55 178.73 503.24C146.65 471.15 124.8 430.27 115.95 385.75C107.09 341.24 111.64 295.11 129 253.18C146.38 211.25 175.79 175.42 213.52 150.21C251.26 124.99 295.62 111.54 341.01 111.54C386.38 111.54 430.75 125 468.48 150.21C506.21 175.43 535.62 211.26 552.98 253.19C570.34 295.12 574.89 341.25 566.04 385.76C557.19 430.27 535.34 471.15 503.25 503.24ZM341.01 569.62C467.11 569.62 569.66 467.04 569.66 340.96C569.66 214.88 467.08 112.33 341.01 112.33C214.92 112.33 112.33 214.91 112.33 341C112.33 467.08 214.9 569.62 341.01 569.62Z" fill="#1F4EC6" fill-opacity="1.000000" fill-rule="nonzero"/>
				<path id="path" d="M517.53 517.53C494.35 540.72 466.83 559.11 436.53 571.66C406.24 584.21 373.77 590.66 340.98 590.66C308.2 590.66 275.73 584.21 245.44 571.66C215.15 559.11 187.63 540.72 164.44 517.53C129.53 482.62 105.75 438.13 96.12 389.7C86.49 341.27 91.43 291.06 110.33 245.45C129.23 199.82 161.23 160.83 202.29 133.39C243.35 105.96 291.62 91.32 341 91.32C390.38 91.32 438.64 105.96 479.7 133.39C520.77 160.83 552.77 199.83 571.66 245.45C590.56 291.07 595.5 341.27 585.87 389.7C576.23 438.13 552.45 482.62 517.53 517.53ZM341 589.88C478.22 589.88 589.88 478.23 589.88 341C589.88 203.77 478.23 92.11 341 92.11C203.76 92.11 92.08 203.76 92.08 341C92.08 478.23 203.75 589.88 341 589.88Z" fill="#1F4EC6" fill-opacity="1.000000" fill-rule="nonzero"/>
				<path id="path" d="M531.82 531.83C506.76 556.89 477.01 576.78 444.27 590.34C411.53 603.9 376.43 610.88 341 610.88C305.55 610.88 270.46 603.9 237.72 590.34C204.98 576.78 175.23 556.89 150.17 531.83C112.42 494.08 86.71 445.99 76.29 393.64C65.87 341.29 71.22 287.02 91.65 237.7C112.08 188.38 146.67 146.23 191.05 116.58C235.44 86.92 287.62 71.1 341 71.1C394.37 71.1 446.55 86.92 490.94 116.58C535.32 146.23 569.92 188.39 590.34 237.7C610.77 287.02 616.11 341.29 605.7 393.65C595.28 446 569.57 494.08 531.82 531.83ZM341 610.09C489.37 610.09 610.09 489.37 610.09 341C610.09 192.62 489.37 71.88 341 71.88C192.63 71.88 71.9 192.6 71.9 341C71.9 489.38 192.61 610.09 341 610.09Z" fill="#1F4EC6" fill-opacity="1.000000" fill-rule="nonzero"/>
				<path id="path" d="M640.19 343.68L630.86 343.61C630.86 342.93 630.86 342.24 630.86 341.57L640.19 341.57C640.2 342.28 640.2 342.98 640.19 343.68ZM630.85 337.48C630.85 336.81 630.85 336.12 630.85 335.44L640.18 335.27L640.18 337.38L630.85 337.48ZM640.08 349.99L630.75 349.71C630.75 349.03 630.75 348.36 630.8 347.69L640.13 347.89C640.12 348.59 640.09 349.29 640.08 349.99ZM630.72 331.36C630.72 330.68 630.72 330 630.64 329.33L639.96 328.96C639.96 329.66 640.01 330.36 640.04 331.06L630.72 331.36ZM639.82 356.29L630.5 355.82C630.5 355.14 630.56 354.46 630.6 353.78L639.93 354.18C639.89 354.88 639.86 355.59 639.82 356.29ZM630.46 325.25C630.46 324.57 630.39 323.89 630.34 323.21L639.65 322.66C639.65 323.35 639.74 324.05 639.78 324.75L630.46 325.25ZM639.43 362.59L630.13 361.92L630.27 359.89L639.58 360.49C639.54 361.19 639.43 361.89 639.43 362.59ZM630.07 319.14C630.02 318.47 629.96 317.78 629.91 317.1L639.2 316.36C639.26 317.04 639.32 317.75 639.37 318.45L630.07 319.14ZM638.92 368.89L629.63 368.02C629.69 367.34 629.76 366.67 629.81 365.99L639.11 366.79C639.04 367.49 638.99 368.19 638.92 368.89ZM629.55 313.02L629.35 311L638.63 310.05C638.7 310.75 638.77 311.45 638.84 312.14L629.55 313.02ZM638.28 375.14L629.01 374.1C629.08 373.41 629.15 372.74 629.22 372.07L638.5 373.02L638.28 375.14ZM628.9 306.97C628.83 306.29 628.74 305.62 628.65 304.95L637.92 303.79L638.17 305.89L628.9 306.97ZM637.49 381.44L628.25 380.19C628.34 379.52 628.43 378.84 628.51 378.17L637.77 379.36C637.68 380.04 637.57 380.74 637.49 381.44ZM628.1 300.9L627.81 298.87L637.04 297.53C637.14 298.22 637.24 298.92 637.34 299.61L628.1 300.9ZM636.55 387.68L627.33 386.23C627.45 385.56 627.55 384.9 627.65 384.21L636.87 385.6L636.55 387.68ZM627.19 294.89C627.08 294.22 626.98 293.55 626.86 292.88L636.06 291.33C636.18 292.03 636.3 292.72 636.4 293.41L627.19 294.89ZM635.51 393.96L626.32 392.32C626.45 391.65 626.57 390.99 626.68 390.32L635.87 391.89C635.79 392.53 635.65 393.27 635.51 393.96ZM626.17 288.86L625.8 286.86L634.96 285.13C635.09 285.81 635.21 286.51 635.34 287.19L626.17 288.86ZM634.33 400.17L625.26 398.33C625.39 397.66 625.53 397 625.64 396.34L634.81 398.1C634.64 398.74 634.47 399.48 634.33 400.17ZM625.03 282.82C624.9 282.15 624.76 281.48 624.62 280.82L633.75 278.93L634.18 280.99L625.03 282.82ZM633.06 406.31L623.95 404.29C624.09 403.63 624.24 402.95 624.39 402.29L633.51 404.26C633.35 404.96 633.21 405.62 633.06 406.31ZM623.75 276.84L623.3 274.85L632.38 272.74C632.54 273.41 632.7 274.1 632.85 274.78L623.75 276.84ZM631.62 412.46L622.56 410.25C622.72 409.59 622.88 408.92 623.03 408.26L632.11 410.41C631.95 411.08 631.78 411.78 631.62 412.46ZM622.34 270.89C622.18 270.23 622 269.56 621.84 268.9L630.87 266.59C631.05 267.27 631.22 267.96 631.39 268.64L622.34 270.89ZM630.05 418.59L621.04 416.19C621.21 415.54 621.38 414.88 621.55 414.22L630.59 416.57L630.05 418.59ZM620.8 264.98C620.63 264.33 620.45 263.67 620.25 263.01L629.24 260.51C629.43 261.18 629.62 261.87 629.8 262.54L620.8 264.98ZM628.38 424.69L619.42 422.09C619.61 421.44 619.8 420.79 619.98 420.12L628.95 422.66C628.74 423.3 628.57 424.01 628.38 424.69ZM619.17 259.09C618.98 258.44 618.78 257.79 618.58 257.14L627.51 254.45C627.72 255.11 627.92 255.79 628.12 256.46L619.17 259.09ZM626.56 430.73L617.65 427.9L618.25 425.94L627.17 428.68C626.94 429.35 626.76 430.07 626.56 430.73ZM617.38 253.23C617.16 252.58 616.95 251.93 616.74 251.28L625.62 248.44C625.83 249.11 626.05 249.77 626.25 250.45L617.38 253.23ZM624.59 436.74L615.76 433.76C615.98 433.11 616.19 432.47 616.4 431.86L625.26 434.78C625.01 435.36 624.82 436.08 624.59 436.74ZM615.45 247.37C615.23 246.72 615.01 246.08 614.78 245.48L623.59 242.4L624.28 244.4L615.45 247.37ZM622.51 442.69L613.74 439.51L614.43 437.62L623.22 440.72L622.51 442.69ZM613.4 241.59C613.17 240.94 612.94 240.3 612.69 239.69L621.43 236.42L622.17 238.41L613.4 241.59ZM620.3 448.6L611.59 445.25C611.84 444.62 612.09 443.98 612.32 443.35L621.05 446.65C620.78 447.28 620.55 447.95 620.3 448.6ZM611.24 235.84C611 235.2 610.74 234.57 610.48 233.94L619.16 230.49L619.92 232.46L611.24 235.84ZM617.96 454.48L609.34 450.93L610.1 449.04L618.76 452.52L617.96 454.48ZM608.95 230.14L608.16 228.24L616.74 224.59C617.01 225.24 617.28 225.9 617.55 226.55L608.95 230.14ZM615.52 460.26L607 456.54C607.28 455.92 607.54 455.3 607.81 454.64L616.39 458.3L615.52 460.26ZM606.54 224.51L605.7 222.61L614.23 218.82L615.08 220.72L606.54 224.51ZM612.95 465.98L604.42 462.08L605.28 460.19L613.8 464.05C613.5 464.73 613.21 465.35 612.95 465.98ZM604.01 218.86C603.72 218.24 603.43 217.62 603.14 216.97L611.57 212.98C611.87 213.62 612.17 214.25 612.46 214.87L604.01 218.86ZM610.26 471.67L601.87 467.59L602.75 465.76L611.17 469.78L610.26 471.67ZM601.36 213.34L600.42 211.5L608.77 207.35L609.72 209.24L601.36 213.34ZM607.44 477.3L599.14 473.04C599.45 472.44 599.75 471.84 600.09 471.23L608.42 475.43L607.44 477.3ZM598.6 207.87C598.29 207.26 597.98 206.66 597.65 206.05L605.91 201.71L606.86 203.61L598.6 207.87ZM604.51 482.87L596.3 478.45L597.25 476.65L605.48 481.02L604.51 482.87ZM595.73 202.44C595.4 201.84 595.07 201.25 594.78 200.65L602.94 196.14C603.28 196.75 603.62 197.37 603.95 197.98L595.73 202.44ZM601.46 488.39L593.34 483.78C593.68 483.2 594.02 482.61 594.34 482.02L602.49 486.55C602.12 487.17 601.81 487.78 601.46 488.39ZM592.73 197.1C592.39 196.51 592.05 195.93 591.71 195.34L599.77 190.6C600.13 191.21 600.47 191.82 600.82 192.43L592.73 197.1ZM598.3 493.83L590.29 489.1L591.31 487.34L599.37 492.07L598.3 493.83ZM589.62 191.79C589.28 191.2 588.93 190.63 588.57 190.05L596.53 185.18C596.9 185.78 597.26 186.39 597.63 186.99L589.62 191.79ZM594.95 499.22L587.05 494.28C587.4 493.7 587.76 493.12 588.12 492.56L596.06 497.43C595.73 498.03 595.35 498.63 594.95 499.22ZM586.43 186.6C586.07 186.02 585.71 185.45 585.33 184.87L593.2 179.85C593.57 180.44 593.95 181.03 594.32 181.63L586.43 186.6ZM591.64 504.53L583.83 499.42L584.93 497.73L592.78 502.76C592.36 503.35 592.03 503.95 591.64 504.53ZM583.12 181.45C582.75 180.88 582.36 180.32 581.99 179.75L589.74 174.56C590.14 175.15 590.52 175.73 590.9 176.31L583.12 181.45ZM588.14 509.77L580.45 504.5L581.59 502.82L589.33 508.03L588.14 509.77ZM579.69 176.38L578.52 174.7L586.16 169.35C586.56 169.92 586.96 170.5 587.37 171.07L579.69 176.38ZM584.53 514.93L576.95 509.5C577.34 508.95 577.74 508.4 578.13 507.84L585.76 513.21L584.53 514.93ZM576.1 171.37L574.9 169.73L582.41 164.2C582.84 164.77 583.25 165.34 583.66 165.91L576.1 171.37ZM580.75 520.02L573.28 514.44C573.69 513.9 574.08 513.35 574.49 512.8L582 518.34L580.75 520.02ZM572.46 166.45C572.05 165.9 571.63 165.36 571.22 164.81L578.63 159.13L579.9 160.81L572.46 166.45ZM576.92 525.03L569.57 519.28L570.81 517.68L578.21 523.37C577.78 523.92 577.31 524.48 576.92 525.03ZM568.71 161.63C568.3 161.09 567.87 160.55 567.44 160.02L574.73 154.19L576.05 155.85L568.71 161.63ZM572.99 529.94L565.75 524.05L567.04 522.46L574.31 528.31L572.99 529.94ZM564.87 156.81C564.45 156.28 564.01 155.76 563.56 155.24L570.73 149.27L572.08 150.89L564.87 156.81ZM568.94 534.79L561.84 528.74C562.29 528.23 562.71 527.7 563.16 527.18L570.31 533.18L568.94 534.79ZM560.93 152.16L559.6 150.61L566.63 144.48L568.01 146.08L560.93 152.16ZM564.8 539.58L557.84 533.39C558.28 532.87 558.73 532.37 559.18 531.86L566.2 538L564.8 539.58ZM556.9 147.59C556.45 147.08 555.95 146.57 555.53 146.07L562.43 139.8C562.9 140.32 563.38 140.83 563.84 141.36L556.9 147.59ZM560.56 544.32L553.73 537.98L555.1 536.48L561.99 542.78C561.52 543.21 561.05 543.81 560.56 544.32ZM552.76 143.11L551.4 141.55L558.16 135.13L559.61 136.67L552.76 143.11ZM556.22 548.9L549.5 542.35C549.96 541.86 550.45 541.4 550.92 540.89L557.66 547.31C557.2 547.82 556.71 548.4 556.22 548.9ZM548.56 138.61L547.13 137.16L553.75 130.6C554.24 131.1 554.7 131.54 555.23 132.1L548.56 138.61ZM551.82 553.33L545.24 546.7L546.68 545.26L553.31 551.83C552.79 552.34 552.31 552.83 551.82 553.33ZM544.24 134.28L542.78 132.85L549.28 126.15L550.78 127.62L544.24 134.28ZM547.29 557.72L540.86 550.97L542.33 549.56L548.8 556.27L547.29 557.72ZM539.83 130.03L538.34 128.64L544.67 121.85L546.21 123.3L539.83 130.03ZM542.68 562.03L536.39 555.14L537.89 553.75L544.23 560.61L542.68 562.03ZM535.3 125.88L533.78 124.53L539.98 117.56L541.56 118.97L535.3 125.88ZM537.92 566.24L531.78 559.22C532.28 558.78 532.8 558.33 533.3 557.88L539.5 564.85C538.99 565.31 538.45 565.78 537.92 566.24ZM530.74 121.85L529.19 120.53L535.25 113.44L536.85 114.81L530.74 121.85ZM533.14 570.38L527.14 563.24L528.71 561.91L534.74 569.02C534.21 569.45 533.68 569.93 533.14 570.38ZM526.07 117.9L524.5 116.61L530.41 109.39L532.03 110.73L526.07 117.9ZM528.25 574.39L522.41 567.12L524 565.83L529.89 573.06L528.25 574.39ZM521.33 114.05L519.74 112.78L525.49 105.45L527.14 106.75L521.33 114.05ZM523.29 578.23L517.61 570.85L519.23 569.59L524.97 576.95L523.29 578.23ZM516.51 110.24L514.88 109L520.49 101.56L522.16 102.81L516.51 110.24ZM518.25 582.07L512.73 574.56L514.36 573.34L519.94 580.81C519.37 581.24 518.8 581.65 518.25 582.07ZM511.62 106.61L509.97 105.42L515.41 97.84C515.99 98.25 516.55 98.67 517.12 99.07L511.62 106.61ZM513.1 585.81L507.73 578.23L509.4 577.05L514.82 584.63L513.1 585.81ZM506.63 103.11C506.07 102.73 505.53 102.33 504.96 101.96L510.24 94.27C510.82 94.66 511.4 95.06 511.96 95.47L506.63 103.11ZM507.9 589.4L502.68 581.66L504.38 580.52L509.64 588.21L507.9 589.4ZM501.59 99.62L499.89 98.5L505 90.71L506.75 91.86L501.59 99.62ZM502.62 592.83L497.57 584.99L499.32 583.91L504.43 591.72L502.62 592.83ZM496.47 96.29L494.76 95.2L499.71 87.3L501.48 88.42L496.47 96.29ZM497.26 596.23L492.38 588.28L494.12 587.21L499.05 595.13L497.26 596.23ZM491.29 93.1L489.54 92.05L494.33 84.05L496.13 85.13L491.29 93.1ZM491.83 599.48L487.1 591.44L488.85 590.39L493.59 598.41L491.83 599.48ZM486.06 89.95L484.3 88.94L488.92 80.83L490.73 81.88L486.06 89.95ZM486.36 602.58L481.81 594.42C482.41 594.11 483.01 593.76 483.59 593.48L488.2 601.6L486.36 602.58ZM480.75 86.94L478.95 86L483.41 77.8L485.25 78.8L480.75 86.94ZM480.79 605.6L476.43 597.36C477.02 597.04 477.63 596.73 478.23 596.42L482.66 604.62L480.79 605.6ZM475.36 84.06L473.55 83.11L477.82 74.83L479.72 75.78L475.36 84.06ZM475.14 608.53L470.96 600.2L472.78 599.25L477.03 607.55L475.14 608.53ZM469.96 81.28L468.07 80.38L472.16 72L474.05 72.95L469.96 81.28ZM469.5 611.29L465.49 602.86L467.33 601.98L471.4 610.37L469.5 611.29ZM464.48 78.62L462.64 77.77L466.54 69.25L468.43 70.14L464.48 78.62ZM463.75 613.95L459.96 605.43L461.86 604.57L465.75 613.1L463.75 613.95ZM458.94 76.08L457.04 75.26L460.79 66.74L462.68 67.59L458.94 76.08ZM457.94 616.49L454.29 607.9L456.18 607.09L459.89 615.62L457.94 616.49ZM453.34 73.66L451.45 72.88L455.01 64.26L456.9 65.07L453.34 73.66ZM452.05 618.95L448.59 610.29L450.48 609.52L454.01 618.16L452.05 618.95ZM447.65 71.41L445.76 70.66L449.14 61.96L451.09 62.73L447.65 71.41ZM446.13 621.24L442.86 612.51L444.75 611.79L448.1 620.49L446.13 621.24ZM441.93 69.23L440.04 68.52L443.23 59.76L445.19 60.48L441.93 69.23ZM440.17 623.42L437.09 614.63L438.98 613.94L442.15 622.72L440.17 623.42ZM436.17 67.16L434.28 66.5L437.27 57.67L439.27 58.35L436.17 67.16ZM434.17 625.47L431.27 616.6L433.21 615.96L436.18 624.8L434.17 625.47ZM430.38 65.22L428.43 64.59L431.27 55.7L433.28 56.35L430.38 65.22ZM428.12 627.38L425.41 618.46L427.37 617.85L430.14 626.76L428.12 627.38ZM424.51 63.32L422.55 62.75L425.17 53.79L427.19 54.39L424.51 63.32ZM422.04 629.08L419.5 620.1L421.47 619.55L424.05 628.51L422.04 629.08ZM418.63 61.63L416.66 61.09L419.09 52.08L421.12 52.63L418.63 61.63ZM415.98 630.73L413.66 621.69L415.63 621.18L418.02 630.19L415.98 630.73ZM412.77 60.05L410.8 59.56L413.03 50.5L415.08 51.02L412.77 60.05ZM409.82 632.21L407.68 623.12L409.67 622.65L411.88 631.71L409.82 632.21ZM406.8 58.61L404.81 58.15L406.86 49.05L408.91 49.52L406.8 58.61ZM403.68 633.62L401.78 624.49L403.77 624.06L405.78 633.17L403.68 633.62ZM400.84 57.28L398.84 56.88L400.68 47.73L402.75 48.16L400.84 57.28ZM397.48 634.85L395.73 625.69L397.73 625.3L399.55 634.45L397.48 634.85ZM394.83 56.07L392.83 55.7L394.48 46.53L396.55 46.9L394.83 56.07ZM391.25 635.99L389.7 626.79L391.71 626.45L393.33 635.63L391.25 635.99ZM388.8 55.03L386.78 54.7L388.24 45.49L390.33 45.83L388.8 55.03ZM385.01 636.97L383.65 627.75L385.68 627.47L387.11 636.68C386.4 636.78 385.68 636.91 385.01 636.97ZM382.75 54.08L380.73 53.81L382 44.57L384.08 44.86L382.75 54.08ZM378.75 637.89L377.6 628.63L379.62 628.36L380.84 637.61L378.75 637.89ZM376.69 53.28L374.66 53.03L375.73 43.77L377.83 44.02L376.69 53.28ZM372.47 638.56L371.53 629.29C372.21 629.22 372.88 629.15 373.55 629.06L374.59 638.34L372.47 638.56ZM370.58 52.6L368.56 52.4L369.44 43.11L371.53 43.32L370.58 52.6ZM366.18 639.15L365.4 629.86L367.43 629.68L368.28 638.96L366.18 639.15ZM364.49 52.05L362.46 51.88L363.14 42.59L365.24 42.74L364.49 52.05ZM359.88 639.61L359.29 630.3L361.33 630.17L361.97 639.47L359.88 639.61ZM358.39 51.62L356.33 51.51L356.82 42.19L358.92 42.3L358.39 51.62ZM353.57 639.95L353.18 630.64L355.22 630.54L355.68 639.86L353.57 639.95ZM352.29 51.32L350.26 51.24L350.55 41.92L352.64 42L352.29 51.32ZM347.28 640.14L347.09 630.81L349.13 630.81L349.39 640.13L347.28 640.14ZM346.19 51.15L344.14 51.15L344.25 41.82L346.35 41.82L346.19 51.15ZM340.96 640.2L340.96 630.87L343 630.87L343.07 640.19L340.96 640.2ZM338.03 51.12L337.94 41.79L340.04 41.79L340.04 51.12L338.03 51.12ZM338.59 640.19L336.49 640.19L336.63 630.86L338.66 630.86L338.59 640.19ZM331.91 51.25L331.62 41.92L333.73 41.86L333.94 51.19C333.26 51.19 332.59 51.22 331.91 51.25ZM332.3 640.08L330.19 640.03L330.53 630.7L332.55 630.76L332.3 640.08ZM325.79 51.5L325.31 42.19L327.41 42.09L327.83 51.4L325.79 51.5ZM325.98 639.84L323.89 639.73L324.4 630.42L326.44 630.53L325.98 639.84ZM319.68 51.86L319.01 42.56L321.11 42.4L321.72 51.72L319.68 51.86ZM319.68 639.45L317.59 639.29L318.31 629.99L320.35 630.14L319.68 639.45ZM313.6 52.41L312.72 43.12L314.82 42.93L315.63 52.22L313.6 52.41ZM313.4 638.98C312.7 638.92 311.99 638.84 311.3 638.78L312.25 629.49L314.28 629.69L313.4 638.98ZM307.51 53.04L306.45 43.77C307.14 43.69 307.84 43.61 308.54 43.54L309.49 52.81L307.51 53.04ZM307.09 638.3L305 638.06L306.1 628.8C306.78 628.88 307.45 628.97 308.12 629.03L307.09 638.3ZM301.41 53.77L300.15 44.53L302.23 44.25L303.43 53.5L301.41 53.77ZM300.81 637.52L298.73 637.24L300.04 628.01L302.05 628.29L300.81 637.52ZM295.38 54.63L293.92 45.41L296 45.11L297.39 54.33L295.38 54.63ZM294.58 636.6L292.5 636.27L294 627.06L296.01 627.39L294.58 636.6ZM289.33 55.66L287.69 46.47L289.76 46.11L291.35 55.31L289.33 55.66ZM288.39 635.56L286.31 635.19L288.01 626.02L290.02 626.38L288.39 635.56ZM283.37 56.8L281.53 47.68L283.59 47.27L285.31 56.43L283.37 56.8ZM282.18 634.37L280.12 633.96L282.02 624.82L284.01 625.23L282.18 634.37ZM277.38 58.05L275.34 48.95L277.4 48.5L279.37 57.61L277.38 58.05ZM275.97 633.15L273.91 632.69L276 623.6L277.98 624.04L275.97 633.15ZM271.39 59.5L269.15 50.44L271.2 49.94L273.37 59.02L271.39 59.5ZM269.81 631.69L267.77 631.18L270.04 622.14L272.02 622.62L269.81 631.69ZM265.43 61.02L263 52.02L265.04 51.48L267.39 60.5L265.43 61.02ZM263.64 630.13L261.62 629.58L264.08 620.58L266.05 621.12L263.64 630.13ZM259.58 62.68L256.96 53.68L258.98 53.1L261.52 62.07L259.58 62.68ZM257.6 628.41L255.59 627.82L258.24 618.88L260.2 619.46L257.6 628.41ZM253.7 64.44L250.86 55.54L252.88 54.92L255.63 63.84L253.7 64.44ZM251.55 626.59L249.55 625.97L252.39 617.08L254.33 617.7L251.55 626.59ZM247.87 66.35L244.88 57.52L246.88 56.85L249.81 65.7C249.16 65.93 248.52 66.12 247.87 66.35ZM245.54 624.63L243.54 623.95L246.58 615.13L248.48 615.79L245.54 624.63ZM242.06 68.36L238.91 59.63L240.89 58.92L244.02 67.7L242.06 68.36ZM239.57 622.56L237.58 621.83L240.82 613.08L242.71 613.77L239.57 622.56ZM236.32 70.55L232.95 61.84L234.91 61.1L238.22 69.82L236.32 70.55ZM233.65 620.38L231.69 619.61L235.1 610.93L236.99 611.67L233.65 620.38ZM230.62 72.83L227.06 64.2L229.02 63.4L232.5 72.05L230.62 72.83ZM227.77 618.05L225.88 617.25L229.48 608.64L231.37 609.41L227.77 618.05ZM224.94 75.23L221.15 66.7L223.04 65.87L226.71 74.39L224.94 75.23ZM221.96 615.61C221.31 615.33 220.67 615.05 220.07 614.77L223.86 606.24L225.75 607.06L221.96 615.61ZM219.37 77.75L215.46 69.28C216.09 68.99 216.74 68.69 217.35 68.41L221.2 76.93C220.61 77.17 219.97 77.47 219.37 77.75ZM216.24 613.05L214.35 612.17L218.31 603.72L220.15 604.57L216.24 613.05ZM213.83 80.38L209.74 72L211.63 71.06L215.67 79.47L213.83 80.38ZM210.55 610.36L208.66 609.41L212.79 601.06L214.62 601.95L210.55 610.36ZM208.35 83.14L204.07 74.85L205.97 73.9L210.18 82.21L208.35 83.14ZM204.92 607.59L203.02 606.64L207.33 598.36L209.14 599.31L204.92 607.59ZM202.93 86L198.48 77.8L200.37 76.81L204.76 85.03L202.93 86ZM199.35 604.64C198.73 604.31 198.11 603.97 197.46 603.63L201.95 595.45C202.53 595.78 203.13 596.1 203.73 596.39L199.35 604.64ZM197.57 88.98L192.95 80.87L194.79 79.84L199.35 87.98L197.57 88.98ZM193.78 601.6C193.17 601.26 192.56 600.9 191.96 600.55L196.6 592.46L198.37 593.48L193.78 601.6ZM192.28 92.08L187.49 84.08L189.3 83.04L194.04 91.07L192.28 92.08ZM188.39 598.43C187.78 598.08 187.17 597.72 186.57 597.35L191.39 589.36L193.14 590.41L188.39 598.43ZM187.05 95.28L182.1 87.38C182.68 87 183.28 86.63 183.89 86.26L188.79 94.2L187.05 95.28ZM182.99 595.15L181.22 594.04L186.2 586.16L187.93 587.24L182.99 595.15ZM181.9 98.59L176.77 90.8L178.53 89.66L183.61 97.49L181.9 98.59ZM177.68 591.77L175.92 590.61L181.07 582.84L182.78 583.95L177.68 591.77ZM176.81 101.97L171.52 94.29L173.26 93.1L178.5 100.82L176.81 101.97ZM172.44 588.27L170.73 587.08L176.05 579.41L177.72 580.56L172.44 588.27ZM171.81 105.54L166.36 97.97L168.06 96.75L173.46 104.32L171.81 105.54ZM167.27 584.64L165.56 583.41L171.04 575.84L172.69 577.02L167.27 584.64ZM166.86 109.17L161.26 101.71L162.95 100.45L168.51 107.95L166.86 109.17ZM162.21 580.94L160.53 579.68L166.16 572.24L167.79 573.47L162.21 580.94ZM162.05 112.9L156.29 105.56L157.95 104.28L163.63 111.65C163.08 112.06 162.59 112.48 162.05 112.9ZM157.2 577.13L155.54 575.82L161.33 568.51L162.92 569.76L157.2 577.13ZM157.28 116.73L151.32 109.55L152.96 108.22L158.82 115.48C158.29 115.87 157.8 116.3 157.28 116.73ZM152.26 573.19L150.64 571.86L156.57 564.66L158.16 565.95L152.26 573.19ZM152.58 120.66L146.52 113.58L148.12 112.22L154.14 119.35L152.58 120.66ZM147.41 569.16L145.77 567.82L151.86 560.76L153.41 562.08L147.41 569.16ZM147.94 124.7L141.72 117.75L143.27 116.33L149.44 123.34L147.94 124.7ZM142.6 564.98L141.04 563.59L147.27 556.65L148.79 558.01L142.6 564.98ZM143.42 128.78L137.06 121.95L138.6 120.52L144.91 127.4L143.42 128.78ZM137.92 560.75L136.39 559.32L142.76 552.51L144.26 553.9L137.92 560.75ZM138.99 133.04L132.48 126.34L134 124.88L140.43 131.62L138.99 133.04ZM133.33 556.45L131.83 554.99L138.35 548.36L139.81 549.79L133.33 556.45ZM134.64 137.34L128.01 130.78L129.49 129.3L136.13 135.93L134.64 137.34ZM128.83 552.05L127.36 550.56L133.98 544.03L135.42 545.48L128.83 552.05ZM130.38 141.74L123.61 135.33C124.09 134.82 124.56 134.31 125.06 133.81L131.79 140.26L130.38 141.74ZM124.43 547.51L122.98 545.98L129.78 539.58C130.24 540.08 130.72 540.53 131.18 541.07L124.43 547.51ZM126.23 146.23L119.32 139.95L120.74 138.41L127.6 144.72L126.23 146.23ZM120.12 542.89L118.7 541.34L125.63 535.08C126.08 535.59 126.58 536.1 127.01 536.59L120.12 542.89ZM122.17 150.79L115.13 144.68C115.58 144.14 116.08 143.61 116.51 143.1L123.51 149.27C123.06 149.77 122.61 150.26 122.17 150.79ZM115.91 538.19L114.52 536.59L121.58 530.5L122.92 532.04L115.91 538.19ZM118.2 155.45L111.08 149.47C111.53 148.93 112.02 148.41 112.43 147.87L119.56 153.89L118.2 155.45ZM111.79 533.39L110.43 531.77L117.62 525.83L118.93 527.39L111.79 533.39ZM114.33 160.18L107.04 154.37L108.37 152.72L115.61 158.59L114.33 160.18ZM107.77 528.5L106.46 526.86L113.77 521.06L115.03 522.65L107.77 528.5ZM110.57 164.99L103.16 159.32L104.45 157.65L111.82 163.33L110.57 164.99ZM103.85 523.53C103.43 522.98 103 522.43 102.59 521.87L110.01 516.19L111.26 517.81L103.85 523.53ZM106.91 169.88L99.34 164.37L100.59 162.68L108.07 168.24L106.91 169.88ZM100.06 518.5L98.8 516.79L106.38 511.31L107.58 512.96L100.06 518.5ZM103.35 174.88L95.71 169.53L96.92 167.81L104.5 173.23C104.13 173.75 103.74 174.3 103.35 174.88ZM96.35 513.4L95.14 511.67L102.8 506.35L103.97 508.02L96.35 513.4ZM99.89 179.92L92.14 174.71C92.53 174.13 92.92 173.54 93.31 172.97L101.03 178.21C100.66 178.77 100.27 179.35 99.89 179.92ZM92.77 508.17L91.59 506.42L99.35 501.25L100.49 502.95L92.77 508.17ZM96.55 184.99L88.68 179.98C89.06 179.39 89.44 178.79 89.83 178.2L97.65 183.29C97.29 183.87 96.91 184.42 96.55 184.99ZM89.3 502.89L88.16 501.13L96.03 496.11C96.4 496.7 96.77 497.27 97.14 497.84L89.3 502.89ZM93.34 190.18L85.36 185.3C85.72 184.7 86.09 184.1 86.46 183.52L94.39 188.42L93.34 190.18ZM85.93 497.54L84.83 495.75L92.81 490.92C93.16 491.49 93.51 492.08 93.87 492.65L85.93 497.54ZM90.25 195.43L82.18 190.69L83.24 188.88L91.27 193.62L90.25 195.43ZM82.67 492.12C82.31 491.51 81.96 490.91 81.61 490.3L89.69 485.63L90.72 487.42L82.67 492.12ZM87.2 200.74L79.05 196.21C79.37 195.61 79.71 194.99 80.07 194.39L88.19 198.96C87.84 199.55 87.53 200.14 87.2 200.74ZM79.53 486.63C79.17 486.02 78.85 485.4 78.51 484.73L86.67 480.24L87.62 482.04L79.53 486.63ZM84.26 206.11L76.01 201.75C76.34 201.14 76.67 200.52 76.96 199.86L85.18 204.26L84.26 206.11ZM76.46 481.07C76.13 480.45 75.8 479.83 75.51 479.18L83.79 474.86L84.73 476.68L76.46 481.07ZM81.48 211.52L73.2 207.36C73.51 206.73 73.83 206.11 74.15 205.46L82.46 209.69L81.48 211.52ZM73.55 475.44C73.23 474.82 72.92 474.19 72.6 473.55L80.97 469.42C81.27 470.02 81.57 470.63 81.91 471.24L73.55 475.44ZM78.81 217.02L70.38 213.01L71.32 211.11L79.73 215.17L78.81 217.02ZM70.76 469.76C70.46 469.13 70.16 468.49 69.81 467.87L78.26 463.91C78.54 464.53 78.84 465.14 79.13 465.81L70.76 469.76ZM76.26 222.54L67.74 218.76C68.02 218.12 68.3 217.48 68.6 216.86L77.12 220.74C76.83 221.27 76.53 221.93 76.26 222.54ZM68.1 463.99C67.81 463.35 67.52 462.71 67.23 462.09L75.76 458.31C76.03 458.92 76.32 459.55 76.59 460.2L68.1 463.99ZM73.83 228.1L65.24 224.47C65.5 223.82 65.78 223.18 66.05 222.57L74.62 226.26L73.83 228.1ZM65.55 458.18L64.73 456.23L73.33 452.64L74.13 454.53L65.55 458.18ZM71.5 233.78L62.84 230.34C63.1 229.68 63.36 229.03 63.62 228.37L72.25 231.88L71.5 233.78ZM63.12 452.37C62.86 451.72 62.61 451.07 62.35 450.4L71.02 447C71.28 447.64 71.52 448.27 71.78 448.9L63.12 452.37ZM69.3 239.49L60.56 236.22C60.81 235.57 61.06 234.91 61.31 234.25L70.02 237.59L69.3 239.49ZM60.78 446.46L60.04 444.48L68.8 441.26C69.03 441.9 69.27 442.54 69.51 443.15L60.78 446.46ZM67.17 245.25L58.37 242.16C58.6 241.5 58.83 240.84 59.07 240.18L67.85 243.32L67.17 245.25ZM58.64 440.51L57.95 438.51L66.76 435.47L67.44 437.36L58.64 440.51ZM65.28 251.04L56.41 248.15C56.63 247.48 56.85 246.81 57.07 246.16L65.92 249.1C65.7 249.73 65.49 250.4 65.28 251.04ZM56.63 434.51L55.97 432.49L64.86 429.66C65.07 430.3 65.28 430.96 65.49 431.6L56.63 434.51ZM63.45 256.88L54.52 254.18C54.72 253.51 54.92 252.83 55.13 252.16L64.05 254.94L63.45 256.88ZM54.72 428.45C54.51 427.79 54.3 427.12 54.1 426.43L63.04 423.79L63.64 425.73L54.72 428.45ZM61.74 262.75L52.75 260.23C52.94 259.57 53.14 258.89 53.32 258.21L62.29 260.78C62.1 261.43 61.91 262.1 61.74 262.75ZM52.93 422.4C52.75 421.72 52.55 421.05 52.37 420.36L61.36 417.89L61.9 419.87L52.93 422.4ZM60.15 268.62L51.12 266.3C51.29 265.61 51.47 264.93 51.65 264.25L60.66 266.64L60.15 268.62ZM51.28 416.32C51.11 415.65 50.93 414.97 50.76 414.29L59.81 412.02C59.97 412.67 60.14 413.33 60.31 413.99L51.28 416.32ZM58.69 274.63L49.61 272.51C49.76 271.82 49.93 271.13 50.09 270.45L59.16 272.65C59 273.26 58.84 273.97 58.69 274.63ZM49.76 410.2L49.28 408.14L58.37 406.06C58.53 406.72 58.68 407.39 58.83 408.04L49.76 410.2ZM57.34 280.6L48.21 278.71C48.36 278.02 48.51 277.34 48.66 276.65L57.77 278.64L57.34 280.6ZM48.37 404.02C48.22 403.33 48.08 402.63 47.93 401.94L57.07 400.05C57.2 400.71 57.35 401.37 57.49 402.04L48.37 404.02ZM56.16 286.61L46.99 284.88L47.38 282.8L56.55 284.61C56.41 285.22 56.28 285.9 56.16 286.61ZM47.11 397.85C46.98 397.17 46.84 396.48 46.73 395.79L55.89 394.09C56.02 394.76 56.15 395.43 56.28 396.09L47.11 397.85ZM55.08 292.63L45.87 291.09C46 290.4 46.11 289.71 46.23 289.01L55.42 290.62L55.08 292.63ZM45.99 391.64C45.87 390.95 45.75 390.26 45.65 389.57L54.85 388.06C54.95 388.74 55.07 389.4 55.18 390.08L45.99 391.64ZM54.13 298.68L44.9 297.32C44.99 296.63 45.1 295.94 45.21 295.24L54.42 296.67C54.33 297.29 54.26 298.01 54.13 298.68ZM44.99 385.4C44.89 384.71 44.79 384.02 44.69 383.32L53.92 382.01C54.02 382.68 54.12 383.36 54.22 384.03L44.99 385.4ZM53.31 304.69L44.06 303.53C44.15 302.83 44.24 302.15 44.33 301.45L53.58 302.68C53.48 303.35 53.39 304.02 53.31 304.69ZM44.15 379.09L43.89 377.01L53.15 375.89C53.23 376.57 53.31 377.25 53.4 377.92L44.15 379.09ZM52.67 310.77L43.39 309.82L43.62 307.73L52.89 308.75C52.75 309.43 52.75 310.1 52.67 310.77ZM43.47 372.83C43.39 372.12 43.32 371.43 43.25 370.74L52.54 369.79L52.74 371.81L43.47 372.83ZM52.11 316.87L42.81 316.1C42.87 315.4 42.93 314.7 42.99 314.01L52.28 314.83C52.16 315.51 52.16 316.15 52.11 316.87ZM42.87 366.54C42.8 365.84 42.75 365.15 42.7 364.44L52 363.72C52 364.4 52.11 365.07 52.16 365.76L42.87 366.54ZM51.67 322.99L42.36 322.42C42.36 321.72 42.44 321.01 42.49 320.31L51.8 320.96C51.68 321.64 51.71 322.31 51.67 322.99ZM42.4 360.26C42.4 359.56 42.31 358.86 42.27 358.16L51.59 357.63L51.71 359.67L42.4 360.26ZM51.36 329.1L42.04 328.72C42.04 328.02 42.1 327.32 42.13 326.62L51.45 327.06C51.34 327.73 51.38 328.42 51.36 329.1ZM42.06 353.96L41.98 351.85L51.31 351.52C51.31 352.2 51.31 352.88 51.38 353.56L42.06 353.96ZM51.17 335.21L41.85 335.02C41.85 334.32 41.85 333.62 41.9 332.92L51.22 333.17C51.13 333.82 51.18 334.53 51.17 335.21ZM41.86 347.64C41.86 346.94 41.86 346.24 41.86 345.54L51.19 345.4L51.19 347.44L41.86 347.64ZM51.12 341.01L51.12 341.34L41.79 341.34L41.79 339.23L51.13 339.29C51.05 339.84 51.12 340.45 51.12 341.01Z" fill="#1F4EC6" fill-opacity="1.000000" fill-rule="nonzero"/>
				<path id="path" d="M635.3 465.23C614.96 513.47 583.06 555.96 542.42 588.96C501.77 621.97 453.64 644.48 402.25 654.51C350.86 664.53 297.79 661.77 247.72 646.45C197.65 631.15 152.11 603.77 115.12 566.72C55.22 506.82 21.57 425.59 21.58 340.9C21.58 256.2 55.24 174.98 115.15 115.09C175.05 55.21 256.3 21.57 341.02 21.58C425.73 21.58 506.97 55.23 566.88 115.12C611.79 160.08 642.29 217.39 654.48 279.75C666.67 342.11 659.99 406.69 635.3 465.23ZM341.02 659.5C516.72 659.5 659.66 516.59 659.66 340.94C659.66 165.28 516.72 22.36 341.02 22.36C165.31 22.36 22.35 165.27 22.35 340.94C22.35 516.61 165.3 659.5 341.02 659.5Z" fill="#1F4EC6" fill-opacity="1.000000" fill-rule="nonzero"/>
			</g>
		</g>
	</g>
</svg>
